<svg id="Layer_1" xmlns="http://www.w3.org/2000/svg" viewBox="0 0 100 100"><style>.st0{fill:none}.st1{fill:#dae8fc}.st2{fill:none;stroke:#01598d;stroke-width:2;stroke-miterlimit:10}.st3{fill:#01598d}</style><ellipse pointer-events="all" class="st1" cx="50" cy="50" rx="50" ry="50"/><path pointer-events="all" class="st2" d="M11 70l40-60 40 60H11z"/><path pointer-events="all" class="st2" d="M91 30L51 90 11 30h80z"/><g><path class="st3" d="M65.5 41.8v-2l-.3-.1c-.1 0-2.4-.9-5.5-.9-3.3 0-6.2 1-8.5 3-2.3-2-5.2-3-8.5-3-3.1 0-5.4.9-5.5.9l-.3.1v1.8c-.9.2-1.5.5-1.5 1v18.9h13.9c.5.4 1.2.7 2 .7s1.5-.3 2-.7h13.6V42.6c-.2-.4-.6-.7-1.4-.8zM51 60.1c-1.2-.5-5.1-2-9.1-2-1.6 0-3 .2-4.2.7V40.4c.7-.2 2.6-.8 4.9-.8 3.1 0 5.7.9 7.8 2.7v11l.5-.6c.1.1.1 7.4.1 7.4zm13.6-1.3c-1.3-.5-2.7-.8-4.4-.8-4 0-7.8 1.5-8.9 2v-7.3l.5.6v-11c2.1-1.8 4.8-2.7 7.8-2.7 2.3 0 4.2.5 4.9.8.1 0 .1 18.4.1 18.4z"/><path class="st3" d="M39.5 42.8l.2.7c4.7-1.2 8.9 1.1 9 1.1l.3-.6c-.2-.1-4.5-2.5-9.5-1.2zM39.5 44.9l.2.7c4.7-1.2 8.9 1.1 9 1.1l.4-.6c-.3-.1-4.6-2.5-9.6-1.2zM39.5 46.9l.2.7c4.7-1.2 8.9 1.1 9 1.1l.3-.7c-.2-.1-4.5-2.5-9.5-1.1zM39.5 49l.2.7c4.7-1.2 8.9 1.1 9 1.1l.4-.6c-.3-.2-4.6-2.5-9.6-1.2zM39.5 51l.2.7c4.7-1.2 8.9 1.1 9 1.1l.4-.6c-.3-.2-4.6-2.6-9.6-1.2zM39.5 53l.2.7c4.7-1.2 8.9 1.1 9 1.1l.4-.6c-.3-.2-4.6-2.5-9.6-1.2zM39.5 55l.2.7c4.7-1.2 8.9 1.1 9 1.1l.4-.6c-.3-.1-4.6-2.5-9.6-1.2zM53.8 44.7s4.3-2.3 9-1.1l.2-.7c-5-1.3-9.3 1.1-9.5 1.2l.3.6zM53.5 46.1l.4.6s4.3-2.3 9-1.1l.1-.6c-5-1.4-9.3 1-9.5 1.1zM53.5 48.1l.4.6s4.3-2.3 9-1.1l.2-.7c-5.1-1.3-9.4 1.1-9.6 1.2zM53.5 50.2l.4.6s4.3-2.3 9-1.1l.1-.7c-5-1.3-9.3 1.1-9.5 1.2zM53.5 52.2l.4.6s4.3-2.3 9-1.1l.1-.7c-5-1.3-9.3 1.1-9.5 1.2zM53.5 54.2l.4.6s4.3-2.3 9-1.1l.1-.7c-5-1.3-9.3 1.1-9.5 1.2zM53.5 56.2l.4.6s4.3-2.3 9-1.1l.2-.7c-5.1-1.2-9.4 1.1-9.6 1.2z"/></g></svg>