<svg id="Layer_1" xmlns="http://www.w3.org/2000/svg" viewBox="0 0 58.6 55"><style>.st0{fill:url(#skyfallGradBracket)}.st1{fill:url(#skyfallGradLogo)}</style><switch><g><path class="st0" d="M3.1 10.7c.6 4.5 1.1 5.5 1.1 10 0 2.8-4.2 5.2-4.2 5.2v3.4s4.2 2.4 4.2 5.2c0 4.5-.6 5.5-1.1 10-.9 7.1 2.2 10.5 5 10.5H14v-6.9s-5 .7-5-3.4c0-3.1.6-3.1 1.1-10 .3-3.1-1.4-5.5-3.1-7.2 1.7-1.7 3.4-3.8 3.1-6.9-.9-6.8-1.1-6.8-1.1-9.9 0-4.1 5-3.8 5-3.8V0H8.1C5 0 2.2 3.4 3.1 10.7z"/><path d="M126.1 96.4c-.2-.4-.6-.6-1-.6h-15.2l2.5-19.4c.1-.6-.4-1.2-1-1.3-.4 0-.9.2-1.1.5l-18.4 32.3c-.3.5-.2 1.3.4 1.6.2.1.4.2.6.2h14.9l-2 19.5c0 .6.4 1.2 1.1 1.3.4 0 .8-.2 1.1-.5l18.1-32.3c.2-.5.2-1 0-1.3z"/><path class="st0" d="M55.5 44.7c-.5-4.5-1-5.5-1-10 0-2.7 4.2-5.1 4.2-5.1v-3.4s-4.1-2.5-4-5.2c.1-4.5.6-5.5 1.2-9.9C56.8 3.9 53.8.4 51.1.4S45.4.3 45.4.3l-.1 6.9s4.9-.6 4.9 3.5c0 3.1-.6 3.1-1.2 9.9-.3 3.1 1.3 5.5 2.9 7.2-1.7 1.7-3.3 3.7-3.1 6.8.7 6.9 1 6.9 1 10 0 4.1-5 3.7-5 3.7l-.1 6.9s2.7 0 5.7.1 5.9-3.4 5.1-10.6z"/><linearGradient id="skyfallGradBracket" gradientUnits="userSpaceOnUse" x1="-272.207" y1="388.084" x2="-261.119" y2="399.172" gradientTransform="matrix(2.6667 0 0 -2.6667 740.625 1077.448)"><stop offset="0" stop-color="#0098db"/><stop offset="1" stop-color="#f3c808"/></linearGradient><linearGradient id="skyfallGradLogo" gradientUnits="userSpaceOnUse" x1="-272.207" y1="388.084" x2="-261.119" y2="399.172" gradientTransform="matrix(2.6667 0 0 -2.6667 740.625 1077.448)"><stop offset="0" stop-color="#0098db"/><stop offset="1" stop-color="#f3c808"/></linearGradient><path class="st1" d="M46.1 21.6c-.2-.4-.6-.6-1-.6H30.3l2.5-18.9c.1-.6-.4-1.2-1-1.2-.4 0-.8.2-1.1.5l-18 31.5c-.3.5-.2 1.2.4 1.6.2.1.4.2.6.2h14.6l-2 19c0 .6.4 1.2 1 1.2.4 0 .8-.2 1-.5L46 22.9c.3-.5.3-1 .1-1.3z"/></g></switch></svg>